<svg xmlns="http://www.w3.org/2000/svg" viewBox="0 0 512 512">
  <g fill="#9ca1a7" transform="translate(85.333333, 42.666667)">
    <path d="M170.666667,0 C241.156267,0 298.666667,57.6949333 298.666667,128L298.666176,216.021833C276.540884,221.71663 257.888419,236.061952 246.529179,255.237398L246.083,255.999L42.6666667,256L42.6666667,384L341.334,383.999L341.333333,426.666667L0,426.666667L0,213.333333L42.6666667,213.333333L42.6666667,128C42.6666667,57.6949333 100.176853,0 170.666667,0ZM320,234.666667C355.346224,234.666667 384,263.320443 384,298.666667C384,334.012891 355.346224,362.666667 320,362.666667C292.134206,362.666667 268.427919,344.857703 259.641919,320.000557L192,320L192,362.666667L128,362.666667L128,320L106.666667,320L106.666667,277.333333L259.641919,277.332776C268.427919,252.47563 292.134206,234.666667 320,234.666667ZM320,277.333333C308.217925,277.333333 298.666667,286.884592 298.666667,298.666667C298.666667,310.448741 308.217925,320 320,320C331.782075,320 341.333333,310.448741 341.333333,298.666667C341.333333,286.884592 331.782075,277.333333 320,277.333333ZM170.666667,42.6666667C123.80899,42.6666667 86.0943131,80.8864895 85.3447054,126.612109L85.3333333,128L85.3333333,213.333333L256,213.333333L256,128C256,81.6625067 217.9968,42.6666667 170.666667,42.6666667Z" />
  </g>
</svg>
